<svg width="580" height="580" xmlns="http://www.w3.org/2000/svg">
 <!-- Created with Method Draw - http://github.com/duopixel/Method-Draw/ -->

 <g>
  <title>background</title>
  <rect fill="#fff" id="canvas_background" height="582" width="582" y="-1" x="-1"/>
  <g display="none" overflow="visible" y="0" x="0" height="100%" width="100%" id="canvasGrid">
   <rect fill="url(#gridpattern)" stroke-width="0" y="0" x="0" height="100%" width="100%"/>
  </g>
 </g>
 <g>
  <title>Layer 1</title>
  <g id="svg_7">
   <g transform="matrix(18.4992500999399,0,0,18.4992500999399,0,0) " id="svg_5">
    <polygon stroke="null" id="svg_6" fill-rule=" evenodd" fill="#4a09e2" class="active-path" points="12.116832733154297,17.199365615844727 11.986062049865723,17.199365615844727 6.364346742630005,31.23036766052246 23.999194145202637,11.196367263793945 14.892866134643555,11.196367263793945 22.179776191711426,0.2303675413131714 12.475029945373535,0.2303675413131714 4.365119218826294,16.199365615844727 12.116832733154297,16.199365615844727 12.116832733154297,16.373367309570312 12.316542625427246,16.373367309570312 12.116832733154297,16.87236785888672 "/>
    <polygon stroke="null" id="svg_14" fill-rule=" evenodd" fill="#EE1010" class="active-path" points="13.892816543579102,17.199365615844727 13.762045860290527,17.199365615844727 8.14033031463623,31.23036766052246 25.775178909301758,11.196367263793945 16.66884994506836,11.196367263793945 23.955760955810547,0.23036757111549377 14.25101375579834,0.23036757111549377 6.1411027908325195,16.199365615844727 13.892816543579102,16.199365615844727 13.892816543579102,16.373367309570312 14.09252643585205,16.373367309570312 13.892816543579102,16.87236785888672 "/>
   </g>
  </g>
 </g>
</svg>